<svg version="1.2" baseProfile="tiny-ps" xmlns="http://www.w3.org/2000/svg" viewBox="0 0 612 471" width="50" height="38">
	<title>checked (4)</title>
	<style>
		tspan { white-space:pre }
		.shp0 { fill: #00ff00 } 
	</style>
	<path id="Forma 1" class="shp0" d="M7.09 262.1C2.36 257.42 -0.04 250.38 -0.07 245.67C-0.1 240.97 2.2 233.89 6.88 229.15L39.6 195.99C48.95 186.52 63.06 186.43 72.53 195.78L74.9 198.12L205.19 336.11C209.92 340.79 216.98 340.74 221.66 336L534.75 6.85L537.1 6.84L537.1 6.84L537.1 6.84C546.45 -2.64 560.57 -2.73 570.04 6.62L603.19 39.35C612.66 48.71 612.75 62.82 603.4 72.3L603.4 72.3L603.4 72.3L229.56 465.38C224.88 470.12 220.19 472.5 213.14 472.55C206.08 472.6 201.36 470.27 196.62 465.6L11.84 269.13L7.09 262.1Z" />
</svg>